<svg width="121" height="123" viewBox="0 0 121 123" fill="none" xmlns="http://www.w3.org/2000/svg">
<path d="M1.55469 47.7676C8.39611 15.427 40.229 -5.2721 72.6592 1.55078C104.836 8.32042 125.519 39.6259 119.158 71.7031L119.003 72.4609C116.148 85.9817 105.847 98.0151 94.4551 106.433C81.1168 116.281 65.3711 122.34 47.8984 118.666C15.4561 111.855 -5.2865 80.108 1.55469 47.7676Z" fill="#FFF5CC" stroke="#DCB100" stroke-width="0.5"/>
<g filter="url(#filter0_d_709_23819)">
<circle cx="101.156" cy="100.5" r="19.5" fill="#FAC900"/>
<g clip-path="url(#clip0_709_23819)">
<path fill-rule="evenodd" clip-rule="evenodd" d="M111.501 93.0466C111.806 93.3514 111.977 93.7646 111.977 94.1955C111.977 94.6264 111.806 95.0397 111.501 95.3444L99.3214 107.524C99.1605 107.685 98.9694 107.813 98.7591 107.9C98.5487 107.987 98.3233 108.032 98.0956 108.032C97.868 108.032 97.6426 107.987 97.4322 107.9C97.2219 107.813 97.0308 107.685 96.8699 107.524L90.8184 101.474C90.6632 101.324 90.5394 101.145 90.4542 100.946C90.369 100.748 90.3242 100.535 90.3223 100.319C90.3205 100.103 90.3616 99.8894 90.4433 99.6897C90.525 99.49 90.6456 99.3086 90.7982 99.156C90.9508 99.0034 91.1322 98.8828 91.3319 98.801C91.5316 98.7193 91.7456 98.6782 91.9614 98.6801C92.1772 98.682 92.3904 98.7268 92.5886 98.812C92.7869 98.8971 92.9662 99.0209 93.1161 99.1761L98.0951 104.155L109.203 93.0466C109.353 92.8956 109.533 92.7758 109.73 92.6941C109.927 92.6124 110.138 92.5703 110.352 92.5703C110.565 92.5703 110.777 92.6124 110.974 92.6941C111.171 92.7758 111.35 92.8956 111.501 93.0466Z" fill="#FEF4CC"/>
</g>
</g>
<path d="M57.5483 76.5887C55.6214 75.8593 54.2231 74.1929 53.9488 72.2454C53.6075 69.816 55.0728 67.3398 57.5483 66.3359C54.8921 66.6237 52.8314 68.4909 52.4768 70.7463C52.2159 72.4261 52.905 74.2732 54.1026 75.2703C55.0728 76.0734 56.1567 76.3277 56.1567 76.3277C56.1567 76.3344 56.344 76.3746 57.5483 76.5887Z" fill="#DCB100"/>
<path d="M57.5473 51.6395C57.7748 51.5926 55.8948 50.7092 55.587 49.0294C55.3127 47.5035 56.0888 45.8974 57.5473 45.0273C57.5473 45.0273 54.657 45.0943 54.3091 47.6842C53.9612 50.2742 56.2427 51.9072 57.5473 51.6395Z" fill="#DCB100"/>
<path d="M57.7481 35.29C56.6241 34.9821 63.7161 34.701 67.871 37.9469C68.8812 38.7366 70.9754 40.6238 72.0459 43.7091C73.5914 48.1729 72.3537 53.3194 71.4571 56.0432C71.0624 57.2479 71.243 58.5663 71.9455 59.6304C76.6022 66.6574 76.2877 75.3107 71.698 80.5308C66.9677 85.9115 58.8186 85.8513 57.7414 85.7844C57.7414 85.7844 71.3099 80.8521 68.821 69.9702C66.3321 59.095 65.8036 56.5853 65.8036 56.5853C65.8036 56.5853 66.3522 37.639 57.7481 35.29Z" fill="#DCB100"/>
<path d="M69.6578 59.5165C68.8951 58.6264 68.7747 57.3415 69.3835 56.3443C70.6882 54.2027 71.4308 51.6797 71.3974 48.976C71.3104 41.5005 65.2153 35.3903 57.7419 35.2899C50.0008 35.1829 43.6983 41.4269 43.6983 49.1433C43.6983 51.7868 44.4343 54.2496 45.7189 56.351C46.3277 57.3482 46.2006 58.6264 45.4445 59.5165C43.0761 62.2872 41.6376 65.8877 41.6309 69.8162C41.6108 78.416 48.5021 85.5367 57.0996 85.771C66.0984 86.0186 73.4715 78.7974 73.4715 69.8497C73.4715 65.9078 72.033 62.3006 69.6578 59.5165ZM57.5478 45.0274C59.3744 45.0274 60.853 46.5065 60.853 48.3335C60.853 50.1605 59.3744 51.6395 57.5478 51.6395C55.7213 51.6395 54.2427 50.1605 54.2427 48.3335C54.2427 46.5065 55.728 45.0274 57.5478 45.0274ZM57.5478 76.5889C54.7177 76.5889 52.4228 74.2934 52.4228 71.4625C52.4228 68.6316 54.7177 66.3361 57.5478 66.3361C60.378 66.3361 62.6728 68.6316 62.6728 71.4625C62.6728 74.2934 60.378 76.5889 57.5478 76.5889Z" fill="#FAC900"/>
<path d="M69.5512 56.4379C72.0468 52.2752 72.2676 47.0417 70.0329 42.7184C68.0659 38.9238 64.3727 36.133 60.171 35.3366C55.9827 34.5469 51.5803 35.7315 48.3621 38.5222C45.0971 41.3464 43.2973 45.6095 43.5382 49.9194C43.6118 51.278 43.8861 52.6299 44.3477 53.9081C44.5485 54.4569 44.7826 54.9923 45.0436 55.5143C45.3915 56.1902 45.8732 56.806 45.9134 57.5957C45.9803 58.9676 44.7826 59.938 44.0801 61.0021C43.3709 62.0796 42.7955 63.2441 42.3606 64.4554C40.8017 68.8323 41.25 73.778 43.5516 77.8068C45.6457 81.4676 49.1717 84.2382 53.2396 85.376C57.4145 86.5404 61.9909 85.9381 65.7175 83.7296C69.3237 81.6014 72.0134 78.0745 73.0972 74.0323C74.3685 69.294 73.3782 64.1141 70.4344 60.1856C70.0597 59.6837 69.5713 59.2286 69.3438 58.633C69.0695 57.9102 69.1632 57.1205 69.5512 56.4379C69.6717 56.2237 69.3438 56.0296 69.2234 56.2438C68.7484 57.087 68.6748 58.0775 69.0829 58.9676C69.3304 59.503 69.7653 59.9246 70.1199 60.3931C70.5013 60.9017 70.8492 61.4304 71.1703 61.9792C72.4616 64.2078 73.1842 66.7442 73.2712 69.3208C73.4117 73.6107 71.7725 77.8336 68.7617 80.892C65.7777 83.9237 61.6229 85.637 57.3743 85.5834C53.0857 85.5366 48.9576 83.6895 46.0472 80.5507C43.1033 77.3785 41.5712 73.0686 41.8655 68.7519C42.0462 66.1687 42.8691 63.6456 44.2541 61.4505C44.8429 60.5203 45.7862 59.7038 46.1475 58.6531C46.5088 57.589 46.1408 56.719 45.6257 55.7887C43.2572 51.5591 43.3509 46.2386 45.8464 42.0893C48.0142 38.4888 51.8145 36.0259 55.9894 35.5575C60.3182 35.0689 64.6738 36.7086 67.6176 39.9209C70.7288 43.314 71.9398 48.1459 70.7689 52.6031C70.4344 53.8881 69.9058 55.0994 69.2234 56.2371C69.0963 56.4579 69.4241 56.652 69.5512 56.4379Z" fill="#284260"/>
<path d="M60.6662 48.3337C60.6194 50.0336 59.2813 51.4457 57.5551 51.4457C55.8624 51.4524 54.4373 50.0269 54.444 48.3337C54.4507 46.6339 55.8557 45.2218 57.5551 45.2218C59.2813 45.2151 60.6194 46.6339 60.6662 48.3337C60.6729 48.5814 61.0543 48.5814 61.0476 48.3337C61.0075 46.8815 60.1511 45.5765 58.7728 45.0544C57.3945 44.5391 55.7955 44.9741 54.8588 46.0985C52.8316 48.5412 54.9993 52.2823 58.1171 51.7737C59.8165 51.4993 61.0008 50.0135 61.0409 48.327C61.0543 48.0861 60.6729 48.0861 60.6662 48.3337Z" fill="#284260"/>
<path d="M62.4797 71.4625C62.4462 73.5439 61.1616 75.4244 59.1812 76.1205C57.2677 76.7964 55.0933 76.1874 53.7819 74.6481C52.4438 73.0754 52.2431 70.7531 53.2868 68.9729C54.3439 67.166 56.4782 66.2156 58.5255 66.6239C60.8338 67.0857 62.4462 69.1469 62.4797 71.4625C62.4864 71.7101 62.8677 71.7101 62.861 71.4625C62.8209 69.2741 61.5029 67.2864 59.4355 66.4967C57.3346 65.6936 54.8925 66.3428 53.4541 68.0695C52.049 69.7693 51.8349 72.2388 52.9523 74.1462C54.083 76.0736 56.3444 77.0909 58.5389 76.6826C61.0412 76.2141 62.8075 73.9789 62.8544 71.4625C62.8677 71.2149 62.4864 71.2149 62.4797 71.4625Z" fill="#284260"/>
<path d="M57.4544 44.8603C56.0494 45.7303 55.1194 47.3031 55.3937 48.9896C55.5877 50.1875 56.404 51.2248 57.4544 51.8004C57.6685 51.9208 57.8625 51.5862 57.6484 51.4724C56.792 51.004 56.0895 50.1942 55.8353 49.2439C55.4004 47.631 56.2835 46.0382 57.6484 45.1882C57.8558 45.0611 57.6618 44.7332 57.4544 44.8603Z" fill="#284260"/>
<path d="M57.4549 66.1753C55.3005 67.0855 53.7148 69.1669 53.7148 71.5561C53.7148 73.9386 55.354 75.9195 57.5017 76.7762C57.7292 76.8699 57.8296 76.4951 57.6021 76.4081C55.5481 75.5916 54.0226 73.6508 54.0962 71.3821C54.1698 69.1869 55.6685 67.3398 57.6489 66.5033C57.8697 66.4096 57.6757 66.0817 57.4549 66.1753Z" fill="#284260"/>
<path d="M57.7484 35.4774C61.8565 34.9888 66.105 36.2537 69.0288 39.2385C71.0159 41.2663 72.2068 43.8831 72.5012 46.7006C72.7822 49.411 72.3741 52.1683 71.6381 54.785C71.3237 55.916 70.9088 56.9534 71.1363 58.1446C71.3906 59.4764 72.3674 60.574 72.9696 61.7652C74.2542 64.2816 75.0102 67.0723 75.0905 69.8965C75.2444 75.0966 73.003 80.223 68.4668 82.9669C65.369 84.8408 61.3748 85.8045 57.7418 85.5903C57.4942 85.5769 57.5009 85.9584 57.7418 85.9718C60.9532 86.1592 64.4324 85.4029 67.316 84.0176C71.9593 81.789 74.8362 77.3519 75.3782 72.2724C75.6726 69.5218 75.2979 66.7109 74.3813 64.1076C73.9129 62.7691 73.3041 61.4842 72.5681 60.2661C72.1533 59.5768 71.6917 58.9544 71.5244 58.1446C71.3437 57.2813 71.511 56.5117 71.7652 55.6952C73.371 50.5621 73.7591 44.559 70.2732 40.0951C67.316 36.3005 62.472 34.5404 57.7418 35.1026C57.5076 35.1294 57.5009 35.5108 57.7484 35.4774Z" fill="#284260"/>
<path d="M55.1527 46.3389C55.5942 46.2117 56.0358 46.0913 56.4707 45.9641C56.5911 45.9306 56.5376 45.7499 56.4172 45.7834C55.9756 45.9106 55.534 46.031 55.0991 46.1582C54.9787 46.185 55.0322 46.3723 55.1527 46.3389Z" fill="#284260"/>
<path d="M54.4633 47.2961C54.8848 47.1355 55.3063 46.9816 55.7345 46.821C55.8483 46.7808 55.8014 46.5934 55.681 46.6403C55.2595 46.8009 54.838 46.9548 54.4098 47.1154C54.3027 47.1556 54.3496 47.3363 54.4633 47.2961Z" fill="#284260"/>
<path d="M54.1419 48.4406C54.5835 48.2867 55.0184 48.1127 55.4399 47.9253C55.5537 47.8717 55.4533 47.7111 55.3462 47.758C54.9381 47.9454 54.5166 48.106 54.0884 48.2532C53.9747 48.2934 54.0215 48.4808 54.1419 48.4406Z" fill="#284260"/>
<path d="M54.303 49.4441C54.7379 49.3103 55.1594 49.1631 55.5809 48.9891C55.6947 48.9422 55.6412 48.7548 55.5274 48.8084C55.1126 48.9824 54.6844 49.1363 54.2495 49.2634C54.1291 49.2969 54.1826 49.4843 54.303 49.4441Z" fill="#284260"/>
<path d="M54.8852 50.4619C55.2398 50.328 55.5944 50.1875 55.949 50.0536C56.0627 50.0068 56.0159 49.8261 55.8955 49.8729C55.5409 50.0068 55.1863 50.1473 54.8317 50.2812C54.7246 50.3213 54.7715 50.5087 54.8852 50.4619Z" fill="#284260"/>
<path d="M55.888 51.2984C56.0486 51.2515 56.2092 51.198 56.3698 51.1512C56.4835 51.1177 56.4367 50.9303 56.3162 50.9705C56.1557 51.0173 55.9951 51.0708 55.8345 51.1177C55.7208 51.1512 55.7676 51.3385 55.888 51.2984Z" fill="#284260"/>
<path d="M53.9896 67.9289C54.5516 67.7683 55.1203 67.6546 55.7024 67.5943C55.8228 67.5809 55.8228 67.3935 55.7024 67.4069C55.1002 67.4672 54.5182 67.5809 53.9361 67.7482C53.8223 67.775 53.8692 67.9624 53.9896 67.9289Z" fill="#284260"/>
<path d="M52.9243 69.1869C53.4461 69.0129 53.9747 68.8724 54.5099 68.7586C54.6304 68.7318 54.5768 68.5511 54.4564 68.5779C53.9212 68.6917 53.3926 68.8389 52.8707 69.0062C52.7637 69.0397 52.8105 69.2204 52.9243 69.1869Z" fill="#284260"/>
<path d="M52.4505 70.2846C52.9724 70.1039 53.5077 69.9567 54.0429 69.8362C54.1633 69.8095 54.1098 69.6288 53.9894 69.6555C53.4474 69.776 52.9189 69.9299 52.397 70.1039C52.2833 70.1441 52.3301 70.3248 52.4505 70.2846Z" fill="#284260"/>
<path d="M52.5033 71.2886C52.9114 71.1615 53.3128 71.041 53.721 70.9138C53.8347 70.8804 53.7879 70.693 53.6674 70.7331C53.2593 70.8603 52.8579 70.9808 52.4498 71.1079C52.336 71.1414 52.3828 71.3288 52.5033 71.2886Z" fill="#284260"/>
<path d="M52.5706 72.4997C52.9921 72.3792 53.407 72.2588 53.8285 72.1316C53.9489 72.0982 53.8954 71.9108 53.7749 71.9509C53.3534 72.0714 52.9386 72.1919 52.5171 72.319C52.3967 72.3458 52.4502 72.5332 52.5706 72.4997Z" fill="#284260"/>
<path d="M52.932 73.4165C53.2932 73.3429 53.6478 73.2425 53.9891 73.102C54.1028 73.0551 54.0493 72.8744 53.9355 72.9213C53.5943 73.0618 53.2397 73.1622 52.8784 73.2358C52.758 73.2559 52.8115 73.4433 52.932 73.4165Z" fill="#284260"/>
<path d="M53.5141 74.6484C53.8821 74.5146 54.2501 74.3874 54.6181 74.2536C54.7318 74.2134 54.685 74.026 54.5645 74.0729C54.1965 74.2067 53.8286 74.3339 53.4606 74.4677C53.3535 74.5079 53.4004 74.6886 53.5141 74.6484Z" fill="#284260"/>
<path d="M54.1966 75.6856C54.6048 75.5317 55.0129 75.3777 55.421 75.2238C55.5348 75.1836 55.4879 74.9963 55.3675 75.0431C54.9594 75.197 54.5512 75.351 54.1431 75.5049C54.0294 75.5383 54.0762 75.7257 54.1966 75.6856Z" fill="#284260"/>
<path d="M55.4134 76.2208C55.6409 76.1472 55.8684 76.0802 56.1026 76.0066C56.2163 75.9732 56.1695 75.7858 56.049 75.8259C55.8216 75.8995 55.5941 75.9665 55.3599 76.0401C55.2462 76.0735 55.293 76.2542 55.4134 76.2208Z" fill="#284260"/>
<path d="M61.8637 36.0796C62.1648 35.9725 62.4592 35.8654 62.7603 35.7516C62.874 35.7115 62.8272 35.5241 62.7067 35.5709C62.4056 35.678 62.1113 35.7851 61.8102 35.8989C61.7031 35.9323 61.75 36.1197 61.8637 36.0796Z" fill="#284260"/>
<path d="M63.0815 36.6686C63.4294 36.5548 63.784 36.4477 64.1319 36.3339C64.2456 36.2938 64.1988 36.1131 64.0784 36.1532C63.7305 36.267 63.3759 36.3741 63.0279 36.4879C62.9142 36.5213 62.9677 36.702 63.0815 36.6686Z" fill="#284260"/>
<path d="M64.5007 37.1104C64.7215 36.9297 64.969 36.8159 65.25 36.7624C65.3705 36.7423 65.3169 36.5549 65.1965 36.5817C64.8821 36.6353 64.601 36.7758 64.3602 36.9766C64.2732 37.0502 64.407 37.184 64.5007 37.1104Z" fill="#284260"/>
<path d="M65.2485 37.6655C65.6031 37.525 65.951 37.3778 66.3056 37.2372C66.4193 37.1904 66.3658 37.0097 66.2521 37.0565C65.8975 37.1971 65.5496 37.3443 65.195 37.4848C65.0879 37.525 65.1347 37.7124 65.2485 37.6655Z" fill="#284260"/>
<path d="M65.9926 38.2013C66.3606 38.0675 66.7152 37.9202 67.0631 37.7529C67.1769 37.6994 67.0765 37.5321 66.9694 37.5856C66.6349 37.7462 66.2937 37.8868 65.9391 38.0139C65.832 38.0608 65.8789 38.2415 65.9926 38.2013Z" fill="#284260"/>
<path d="M66.5677 38.7028C66.9959 38.5489 67.4174 38.4017 67.8456 38.2477C67.9594 38.2076 67.9125 38.0202 67.7921 38.067C67.3639 38.221 66.9424 38.3682 66.5142 38.5221C66.4005 38.5623 66.4473 38.743 66.5677 38.7028Z" fill="#284260"/>
<path d="M67.6048 39.5196C68.013 39.3456 68.4144 39.1649 68.8225 38.9909C68.9363 38.9441 68.8359 38.7768 68.7289 38.8236C68.3207 38.9976 67.9193 39.1783 67.5112 39.3523C67.3974 39.4059 67.4978 39.5665 67.6048 39.5196Z" fill="#284260"/>
<path d="M68.3671 40.2558C68.7083 40.142 69.0295 40.0015 69.3372 39.8208C69.4443 39.7606 69.3439 39.5933 69.2436 39.6535C68.9492 39.8275 68.6414 39.968 68.3203 40.0751C68.1998 40.1086 68.2533 40.2893 68.3671 40.2558Z" fill="#284260"/>
<path d="M68.8481 41.1124C69.196 40.9652 69.5506 40.8179 69.8985 40.6707C70.0123 40.6238 69.9587 40.4365 69.845 40.49C69.4971 40.6372 69.1425 40.7845 68.7946 40.9317C68.6875 40.9719 68.7344 41.1592 68.8481 41.1124Z" fill="#284260"/>
<path d="M69.3232 42.0026C69.7781 41.8152 70.2197 41.6077 70.6613 41.3936C70.7683 41.34 70.6747 41.1727 70.5676 41.2263C70.1461 41.4404 69.7179 41.6345 69.2763 41.8152C69.1626 41.8687 69.2094 42.0494 69.3232 42.0026Z" fill="#284260"/>
<path d="M70.0063 43.06C70.4278 42.9128 70.8493 42.7656 71.2708 42.6183C71.3846 42.5782 71.3377 42.3908 71.2173 42.4376C70.7958 42.5849 70.3743 42.7321 69.9528 42.8793C69.8457 42.9128 69.8926 43.1002 70.0063 43.06Z" fill="#284260"/>
<path d="M70.4469 44.1975C70.9822 43.9566 71.5375 43.7826 72.1196 43.6755C72.24 43.6554 72.1865 43.468 72.066 43.4948C71.4706 43.6019 70.9019 43.7826 70.3465 44.0369C70.2395 44.0837 70.3399 44.251 70.4469 44.1975Z" fill="#284260"/>
<path d="M70.9095 45.3421C71.2976 45.235 71.6856 45.128 72.0737 45.0276C72.1941 44.9941 72.1406 44.8134 72.0202 44.8469C71.6321 44.954 71.2441 45.061 70.856 45.1614C70.7423 45.1882 70.7891 45.3689 70.9095 45.3421Z" fill="#284260"/>
<path d="M71.0826 46.7942C71.5978 46.5198 72.1397 46.319 72.7017 46.1852C72.8222 46.1584 72.7687 45.971 72.6482 46.0045C72.0661 46.145 71.5108 46.3525 70.9823 46.6336C70.8819 46.6871 70.9756 46.8544 71.0826 46.7942Z" fill="#284260"/>
<path d="M71.6459 48.1728C72.0741 48.039 72.4956 47.9051 72.9238 47.7713C73.0375 47.7378 72.9907 47.5504 72.8702 47.5906C72.442 47.7244 72.0205 47.8583 71.5923 47.9921C71.4786 48.0256 71.5254 48.213 71.6459 48.1728Z" fill="#284260"/>
<path d="M71.6728 49.1299C72.0341 48.9426 72.4155 48.7953 72.8102 48.6949C72.9307 48.6682 72.8771 48.4808 72.7567 48.5142C72.3419 48.6213 71.9538 48.7686 71.5725 48.9693C71.4654 49.0229 71.5591 49.1835 71.6728 49.1299Z" fill="#284260"/>
<path d="M71.3649 50.5218C71.7596 50.3144 72.1677 50.1471 72.5959 50.0266C72.7164 49.9931 72.6628 49.8124 72.5424 49.8459C72.0941 49.9731 71.6726 50.1404 71.2645 50.3612C71.1575 50.4148 71.2578 50.5821 71.3649 50.5218Z" fill="#284260"/>
<path d="M71.1979 52.041C71.6127 51.8001 72.0409 51.606 72.4891 51.4521C72.6029 51.4119 72.5561 51.2313 72.4356 51.2714C71.9673 51.432 71.5257 51.6328 71.0975 51.8804C70.9971 51.9407 71.0908 52.108 71.1979 52.041Z" fill="#284260"/>
<path d="M70.7295 53.2727C71.2313 53.005 71.7464 52.7708 72.2817 52.57C72.3954 52.5298 72.3486 52.3425 72.2282 52.3893C71.6795 52.5968 71.151 52.8377 70.6291 53.1121C70.5221 53.1656 70.6157 53.3262 70.7295 53.2727Z" fill="#284260"/>
<path d="M70.448 54.6108C70.9498 54.3966 71.4449 54.1758 71.9467 53.9616C72.0605 53.9148 71.9601 53.7475 71.853 53.7943C71.3512 54.0085 70.8561 54.2293 70.3543 54.4435C70.2406 54.497 70.3343 54.6643 70.448 54.6108Z" fill="#284260"/>
<path d="M69.9265 55.8492C70.4551 55.6217 70.9837 55.3874 71.5122 55.1599C71.6259 55.113 71.5256 54.9457 71.4185 54.9926C70.89 55.2201 70.3614 55.4543 69.8329 55.6819C69.7191 55.7354 69.8128 55.896 69.9265 55.8492Z" fill="#284260"/>
<path d="M69.3375 57.1606C70.0802 56.8059 70.8295 56.4847 71.5989 56.1835C71.7127 56.1367 71.6659 55.956 71.5454 56.0028C70.7626 56.304 69.9932 56.6386 69.2372 57C69.1301 57.0468 69.2305 57.2141 69.3375 57.1606Z" fill="#284260"/>
<path d="M69.3434 58.1717C69.9589 57.8571 70.6012 57.6095 71.2703 57.4221C71.3907 57.3887 71.3372 57.208 71.2168 57.2414C70.5343 57.4355 69.8786 57.6898 69.243 58.011C69.136 58.0646 69.2363 58.2319 69.3434 58.1717Z" fill="#284260"/>
<path d="M69.5504 59.1152C70.1325 58.8007 70.7413 58.6267 71.3836 58.4728C71.5041 58.446 71.4505 58.2586 71.3301 58.2921C70.6744 58.446 70.0522 58.6334 69.4501 58.9546C69.343 59.0082 69.4434 59.1755 69.5504 59.1152Z" fill="#284260"/>
<path d="M70.0123 60.1055C70.5007 59.8378 71.0092 59.6236 71.5378 59.4563C71.6515 59.4229 71.6047 59.2355 71.4842 59.2756C70.9356 59.4496 70.4137 59.6705 69.912 59.9449C69.8116 59.9984 69.9053 60.159 70.0123 60.1055Z" fill="#284260"/>
<path d="M70.7028 61.0025C71.1845 60.7482 71.693 60.5675 72.2282 60.4471C72.3487 60.4203 72.2951 60.2396 72.1747 60.2664C71.6261 60.3868 71.1042 60.5809 70.6024 60.8419C70.4954 60.8888 70.5957 61.0561 70.7028 61.0025Z" fill="#284260"/>
<path d="M71.2709 61.7118C71.7125 61.5579 72.1541 61.3973 72.5957 61.2433C72.7094 61.2032 72.6626 61.0158 72.5421 61.0626C72.1006 61.2166 71.659 61.3772 71.2174 61.5311C71.1037 61.5646 71.1572 61.752 71.2709 61.7118Z" fill="#284260"/>
<path d="M71.7994 62.7359C72.2544 62.4682 72.7696 62.3276 73.2847 62.2273C73.4052 62.2072 73.3516 62.0198 73.2312 62.0466C72.7027 62.1469 72.1741 62.3009 71.6991 62.5753C71.5987 62.6288 71.6924 62.7961 71.7994 62.7359Z" fill="#284260"/>
<path d="M72.2468 63.7128C72.6884 63.5187 73.1233 63.3247 73.5649 63.1306C73.6786 63.0837 73.5783 62.9164 73.4712 62.9633C73.0296 63.1574 72.5948 63.3514 72.1532 63.5455C72.0394 63.5991 72.1331 63.7597 72.2468 63.7128Z" fill="#284260"/>
<path d="M72.6429 64.8776C72.9909 64.6032 73.3856 64.4158 73.8138 64.3087C73.9342 64.2819 73.8807 64.0945 73.7603 64.128C73.2986 64.2418 72.8771 64.4492 72.5024 64.7437C72.4088 64.8173 72.5426 64.9512 72.6429 64.8776Z" fill="#284260"/>
<path d="M72.7897 65.7002C73.2312 65.4459 73.6929 65.2452 74.1813 65.0979C74.3017 65.0645 74.2482 64.8771 74.1278 64.9172C73.626 65.0712 73.1443 65.2719 72.6893 65.5396C72.5889 65.5999 72.6826 65.7672 72.7897 65.7002Z" fill="#284260"/>
<path d="M73.305 66.8447C73.7533 66.5904 74.2216 66.3829 74.7167 66.229C74.8305 66.1888 74.7836 66.0081 74.6632 66.0483C74.1547 66.2089 73.673 66.423 73.2113 66.684C73.1043 66.7376 73.198 66.9049 73.305 66.8447Z" fill="#284260"/>
<path d="M73.4929 67.7413C73.9077 67.4133 74.3693 67.1724 74.8711 67.0252C74.9916 66.9917 74.938 66.8043 74.8176 66.8445C74.2757 66.9984 73.7873 67.2594 73.3524 67.6074C73.2654 67.681 73.3992 67.8149 73.4929 67.7413Z" fill="#284260"/>
<path d="M73.4662 69.1736C73.9412 68.9594 74.4162 68.752 74.8913 68.5378C75.005 68.491 74.9047 68.3236 74.7976 68.3705C74.3226 68.5847 73.8475 68.7921 73.3725 69.0063C73.2588 69.0598 73.3591 69.2271 73.4662 69.1736Z" fill="#284260"/>
<path d="M73.3522 70.1643C73.9275 69.8431 74.5163 69.5687 75.1385 69.3478C75.2523 69.3077 75.2054 69.1203 75.085 69.1671C74.4494 69.3947 73.8406 69.6691 73.2518 69.997C73.1514 70.0639 73.2451 70.2245 73.3522 70.1643Z" fill="#284260"/>
<path d="M73.4124 71.2887C73.9945 70.9942 74.5833 70.6997 75.1654 70.4053C75.2724 70.3517 75.1787 70.1844 75.0717 70.238C74.4896 70.5324 73.9008 70.8269 73.3188 71.1214C73.2117 71.1816 73.3054 71.3422 73.4124 71.2887Z" fill="#284260"/>
<path d="M73.2513 72.8214C73.8334 72.4667 74.4422 72.1789 75.0845 71.9513C75.1983 71.9112 75.1514 71.7238 75.031 71.7706C74.3753 72.0049 73.7464 72.306 73.1509 72.6607C73.0506 72.721 73.1509 72.8816 73.2513 72.8214Z" fill="#284260"/>
<path d="M72.9642 73.9789C73.6734 73.7446 74.3826 73.5037 75.0918 73.2695C75.2056 73.2293 75.1587 73.0486 75.0383 73.0888C74.3291 73.323 73.6199 73.564 72.9107 73.7982C72.7969 73.8316 72.8438 74.0123 72.9642 73.9789Z" fill="#284260"/>
<path d="M72.6764 75.3173C73.3254 74.9961 74.0078 74.7551 74.717 74.5945C74.8374 74.5678 74.7839 74.3871 74.6635 74.4138C73.9342 74.5744 73.2451 74.8221 72.576 75.1567C72.4757 75.2102 72.5693 75.3708 72.6764 75.3173Z" fill="#284260"/>
<path d="M71.9135 76.6962C72.703 76.395 73.4992 76.0872 74.2887 75.786C74.4024 75.7392 74.3556 75.5585 74.2351 75.6053C73.4456 75.9065 72.6495 76.2144 71.86 76.5155C71.7462 76.5557 71.7998 76.7431 71.9135 76.6962Z" fill="#284260"/>
<path d="M71.3841 77.9077C72.2138 77.64 73.0367 77.3723 73.8663 77.1113C73.9801 77.0711 73.9332 76.8904 73.8128 76.9306C72.9832 77.1983 72.1602 77.466 71.3306 77.727C71.2169 77.7605 71.2637 77.9478 71.3841 77.9077Z" fill="#284260"/>
<path d="M70.5892 79.226C71.459 78.9048 72.3421 78.617 73.232 78.3694C73.3524 78.3359 73.2989 78.1552 73.1785 78.1887C72.2886 78.4363 71.4055 78.7241 70.5357 79.0453C70.4219 79.0855 70.4688 79.2662 70.5892 79.226Z" fill="#284260"/>
<path d="M69.7455 80.2094C70.5617 80.0555 71.378 79.9818 72.2009 79.9752C72.3213 79.9752 72.3213 79.7811 72.2009 79.7878C71.3579 79.7945 70.5216 79.8748 69.6919 80.0287C69.5782 80.0488 69.625 80.2295 69.7455 80.2094Z" fill="#284260"/>
<path d="M68.3734 81.521C69.4104 81.26 70.4274 80.9522 71.4377 80.6042C71.5514 80.564 71.5046 80.3766 71.3841 80.4235C70.3739 80.7715 69.3569 81.0793 68.3198 81.3403C68.1994 81.3671 68.2529 81.5545 68.3734 81.521Z" fill="#284260"/>
<path d="M67.4432 82.2975C68.3599 82.0834 69.2965 82.1503 70.2265 82.0499C70.347 82.0365 70.347 81.8491 70.2265 81.8625C69.2765 81.9629 68.3264 81.9027 67.3964 82.1168C67.276 82.1436 67.3228 82.3243 67.4432 82.2975Z" fill="#284260"/>
<path d="M66.4399 83.2682C67.0956 83.2013 67.7446 83.1344 68.4003 83.0675C68.5207 83.0541 68.5207 82.8667 68.4003 82.8801C67.7446 82.947 67.0956 83.0139 66.4399 83.0809C66.3195 83.0875 66.3195 83.2816 66.4399 83.2682Z" fill="#284260"/>
<path d="M65.4893 83.7365C65.9777 83.7098 66.4595 83.7432 66.9412 83.8369C67.0616 83.857 67.1151 83.6763 66.9947 83.6562C66.4996 83.5625 65.9978 83.5224 65.4893 83.5492C65.3689 83.5492 65.3622 83.7432 65.4893 83.7365Z" fill="#284260"/>
<path d="M64.4062 84.3724C64.8678 84.4661 65.3362 84.4995 65.8045 84.4727C65.9249 84.4661 65.9249 84.2787 65.8045 84.2854C65.3496 84.3054 64.9013 84.2787 64.453 84.1917C64.3326 84.1649 64.2857 84.3456 64.4062 84.3724Z" fill="#284260"/>
<path d="M63.2681 84.7872C63.7632 84.8072 64.2516 84.834 64.7467 84.8541C64.8671 84.8608 64.8671 84.6667 64.7467 84.6667C64.2516 84.6466 63.7632 84.6199 63.2681 84.5998C63.1476 84.5864 63.1476 84.7805 63.2681 84.7872Z" fill="#284260"/>
<path d="M70.9701 69.5885C71.0035 70.164 70.9901 70.7329 70.9232 71.3017C70.8965 71.5427 71.2778 71.5427 71.3046 71.3017C71.3715 70.7329 71.3916 70.164 71.3514 69.5885C71.338 69.3476 70.9567 69.3409 70.9701 69.5885Z" fill="#284260"/>
<path d="M70.8417 72.8545C70.8149 73.2494 70.7814 73.6442 70.7547 74.0391C70.7346 74.2867 71.116 74.28 71.136 74.0391C71.1628 73.6442 71.1963 73.2494 71.223 72.8545C71.2364 72.6136 70.855 72.6136 70.8417 72.8545Z" fill="#284260"/>
<path d="M69.785 71.7636C69.7315 72.0715 69.6445 72.3726 69.5308 72.6671C69.4438 72.8946 69.8118 72.995 69.8988 72.7675C70.0125 72.473 70.0928 72.1719 70.153 71.864C70.1932 71.6231 69.8252 71.5227 69.785 71.7636Z" fill="#284260"/>
<path d="M53.433 37.4787C50.2416 39.2054 47.8464 42.1567 46.8026 45.6234C46.729 45.8576 47.097 45.958 47.1706 45.7238C48.1876 42.3441 50.5226 39.4864 53.6271 37.8066C53.8412 37.6929 53.6471 37.3649 53.433 37.4787Z" fill="#284260"/>
<path d="M46.6228 47.7714C46.5492 48.1797 46.5224 48.5946 46.5492 49.0095C46.5626 49.2505 46.944 49.2572 46.9306 49.0095C46.9038 48.6281 46.9239 48.2466 46.9908 47.8718C47.0376 47.6309 46.6696 47.5305 46.6228 47.7714Z" fill="#284260"/>
<defs>
<filter id="filter0_d_709_23819" x="81.6562" y="81" width="39" height="41.3342" filterUnits="userSpaceOnUse" color-interpolation-filters="sRGB">
<feFlood flood-opacity="0" result="BackgroundImageFix"/>
<feColorMatrix in="SourceAlpha" type="matrix" values="0 0 0 0 0 0 0 0 0 0 0 0 0 0 0 0 0 0 127 0" result="hardAlpha"/>
<feOffset dy="2.33419"/>
<feComposite in2="hardAlpha" operator="out"/>
<feColorMatrix type="matrix" values="0 0 0 0 0.862745 0 0 0 0 0.694118 0 0 0 0 0 0 0 0 1 0"/>
<feBlend mode="normal" in2="BackgroundImageFix" result="effect1_dropShadow_709_23819"/>
<feBlend mode="normal" in="SourceGraphic" in2="effect1_dropShadow_709_23819" result="shape"/>
</filter>
<clipPath id="clip0_709_23819">
<rect width="26" height="26" fill="white" transform="translate(88.1582 87.5098)"/>
</clipPath>
</defs>
</svg>
