<svg width="121" height="120" viewBox="0 0 121 120" fill="none" xmlns="http://www.w3.org/2000/svg">
<path d="M1.55469 47.7676C8.39611 15.427 40.229 -5.2721 72.6592 1.55078C104.836 8.32042 125.519 39.6259 119.158 71.7031L119.003 72.4609C116.148 85.9817 105.847 98.0151 94.4551 106.433C81.1168 116.281 65.3711 122.34 47.8984 118.666C15.4561 111.855 -5.2865 80.108 1.55469 47.7676Z" fill="#F0F4FB" stroke="#BBC7D4" stroke-width="0.5"/>
<path d="M56.7449 53.3098C56.5758 53.2253 54.7158 52.295 54.4057 50.2511C54.145 48.5456 55.0821 46.7836 56.7449 45.9238C56.7449 45.9238 52.9684 46.389 53.1657 49.7437C53.363 53.1055 56.7449 53.3098 56.7449 53.3098Z" fill="#284260"/>
<path d="M53.8906 84.8272L56.7442 85.8068C63.6279 84.052 83.194 74.5234 80.0234 53.6974C76.8458 32.8714 58.6113 35.317 58.6113 35.317C58.6113 35.317 71.2373 41.4133 73.9007 53.0208C76.564 64.6284 59.337 79.4146 59.337 79.4146L53.8906 84.8272Z" fill="#284260"/>
<path d="M56.4073 35.3174C48.7908 35.8107 40.3358 43.0557 41.1391 51.3016C41.7168 57.2217 47.0505 63.5364 53.8919 63.5505C60.2613 63.5646 64.1999 58.1238 64.6297 57.5177C64.9327 59.1598 65.1229 61.6829 64.1295 64.3962C62.2976 69.4001 57.2034 72.9028 51.0384 73.6922L53.8919 84.8346C53.8919 84.8346 76.7132 80.4157 78.221 60.3227C79.7288 40.2226 64.7988 34.7747 56.4073 35.3174ZM56.7455 53.3102C54.7092 53.3102 53.0535 51.654 53.0535 49.6172C53.0535 47.5804 54.7092 45.9242 56.7455 45.9242C58.7817 45.9242 60.4375 47.5804 60.4375 49.6172C60.4375 51.661 58.7817 53.3102 56.7455 53.3102Z" fill="#BBC7D4"/>
<path d="M53.2505 49.6237C53.2998 47.7208 54.8005 46.1351 56.7381 46.1351C58.6405 46.128 60.2258 47.7279 60.2258 49.6237C60.2258 51.5266 58.6405 53.1123 56.7381 53.1123C54.8076 53.1123 53.2998 51.5195 53.2505 49.6237C53.2434 49.3629 52.8418 49.3629 52.8488 49.6237C52.8911 51.2376 53.8423 52.6894 55.3712 53.2674C56.9284 53.8523 58.7391 53.359 59.7749 52.0552C61.9731 49.3065 59.5142 45.1766 56.0476 45.7897C54.1805 46.121 52.8911 47.756 52.8418 49.6237C52.8418 49.8774 53.2434 49.8774 53.2505 49.6237Z" fill="#284260"/>
<path d="M50.8475 73.7343C51.6789 76.9833 52.5103 80.2323 53.3417 83.4813C53.4615 83.9464 53.5813 84.4115 53.7011 84.8696C53.7292 84.9824 53.842 85.0317 53.9477 85.0106C55.4555 84.7146 56.9421 84.2283 58.3865 83.7068C61.691 82.5157 64.8686 80.9159 67.7151 78.8509C71.231 76.3067 74.2325 73.0224 76.1207 69.0828C78.4599 64.2128 78.9884 58.5394 78.2345 53.2254C77.5722 48.5598 75.6134 44.0986 72.1751 40.8144C69.4202 38.1785 65.8903 36.4095 62.1842 35.585C58.1399 34.6899 54.0604 34.9507 50.305 36.8113C45.2884 39.2991 40.8989 44.3312 40.8848 50.1737C40.8777 55.7485 44.8938 61.2316 50.1148 63.0781C55.2229 64.8823 60.4861 62.6552 63.9104 58.7297C64.2275 58.3702 64.5304 57.9897 64.8052 57.602C64.6854 57.5879 64.5586 57.5668 64.4388 57.5527C65.1575 61.5417 64.0936 65.573 61.2964 68.5401C58.619 71.3733 54.8636 72.9661 51.0448 73.4664C50.7911 73.5017 50.7911 73.9034 51.0448 73.8682C57.1958 73.0506 63.382 69.2731 64.7841 62.8526C65.1716 61.0695 65.1505 59.2371 64.8334 57.447C64.7982 57.2637 64.5586 57.2708 64.467 57.3976C62.0503 60.8369 57.9849 63.4164 53.7081 63.3318C47.846 63.212 42.8717 58.2998 41.5964 52.7532C40.2366 46.8543 43.9074 41.2584 48.7338 38.1715C51.0589 36.6844 53.7363 35.6625 56.5053 35.5004C58.0131 35.4088 59.5279 35.5145 61.0146 35.7682C64.5868 36.3814 68.0392 37.8543 70.8434 40.166C74.2466 42.9639 76.4589 46.8613 77.4453 51.1322C78.6502 56.3334 78.4247 62.1901 76.5083 67.194C74.9652 71.2323 72.2456 74.7068 68.9129 77.4343C64.6995 80.8736 59.4434 83.3826 54.1238 84.5596C54.0322 84.5807 53.9406 84.6018 53.849 84.6159C53.9336 84.6653 54.0111 84.7076 54.0956 84.7569C53.2642 81.5079 52.4328 78.2589 51.6014 75.0099C51.4816 74.5447 51.3619 74.0796 51.2421 73.6215C51.1646 73.3819 50.7771 73.4876 50.8475 73.7343Z" fill="#284260"/>
<path d="M56.6387 45.7549C54.9688 46.657 53.8767 48.4823 54.222 50.4064C54.4615 51.7313 55.4339 52.9012 56.6387 53.4862C56.8712 53.599 57.0755 53.2536 56.843 53.1409C55.8496 52.6546 55.0111 51.7384 54.7011 50.6742C54.1656 48.8206 55.2225 46.9812 56.843 46.1002C57.0685 45.9804 56.8712 45.6351 56.6387 45.7549Z" fill="#284260"/>
<path d="M58.6057 35.5146C60.9026 35.2115 63.3686 35.5146 65.588 36.0784C70.6258 37.3611 74.7617 40.6382 77.1784 45.2475C78.9609 48.6445 79.8628 52.5418 80.1024 56.3547C80.3278 59.9772 79.8487 63.6209 78.5593 67.0179C76.3681 72.7899 71.9997 77.4626 66.9127 80.8384C64.8482 82.2057 62.65 83.3897 60.3671 84.3482C59.5005 84.7076 58.6268 85.0318 57.732 85.3137C57.4713 85.3983 56.9217 85.6097 56.7667 85.6027C56.2876 85.5745 55.6958 85.2362 55.2448 85.0812C54.808 84.9332 54.3782 84.7852 53.9414 84.6371C53.6948 84.5526 53.5891 84.9402 53.8357 85.0248C54.3077 85.1869 54.7869 85.349 55.2589 85.5111C55.6817 85.6591 56.2242 85.9621 56.6751 85.9974C57.0133 86.0256 57.4361 85.8212 57.7602 85.7225C58.197 85.5886 58.6339 85.4406 59.0636 85.2855C61.269 84.4821 63.3968 83.4531 65.4119 82.255C70.6046 79.1752 75.2337 74.869 77.9463 69.4141C81.3001 62.6694 81.3072 54.5293 78.6368 47.538C76.6358 42.3086 72.7677 38.1293 67.4552 36.2334C65.6444 35.5921 63.742 35.2115 61.8256 35.0776C60.8321 35.0071 59.74 34.9366 58.7466 35.0987C58.6973 35.1058 58.6479 35.1058 58.5986 35.1128C58.3591 35.1481 58.352 35.5498 58.6057 35.5146Z" fill="#284260"/>
<path d="M53.8974 47.5167C54.4329 47.3828 54.9683 47.2419 55.4968 47.0868C55.6236 47.0516 55.5672 46.8542 55.4404 46.8965C54.912 47.0516 54.3765 47.1925 53.841 47.3264C53.7142 47.3546 53.7706 47.552 53.8974 47.5167Z" fill="#284260"/>
<path d="M53.201 48.5387C53.6589 48.3836 54.1099 48.2286 54.5679 48.0665C54.6876 48.0242 54.6383 47.8339 54.5115 47.8762C54.0535 48.0313 53.6026 48.1863 53.1446 48.3484C53.0248 48.3907 53.0741 48.581 53.201 48.5387Z" fill="#284260"/>
<path d="M53.0397 49.4834C53.4131 49.3354 53.7795 49.1874 54.1529 49.0324C54.2727 48.983 54.2163 48.7927 54.0965 48.8421C53.7231 48.9901 53.3567 49.1381 52.9833 49.2931C52.8706 49.3425 52.9199 49.5328 53.0397 49.4834Z" fill="#284260"/>
<path d="M53.2155 50.4416C53.596 50.2795 53.9835 50.1174 54.364 49.9553C54.4837 49.906 54.3781 49.7298 54.2653 49.7791C53.8848 49.9412 53.4973 50.1033 53.1169 50.2654C52.9971 50.3218 53.0957 50.491 53.2155 50.4416Z" fill="#284260"/>
<path d="M53.5174 51.5272C53.912 51.3581 54.3066 51.1889 54.6941 51.0198C54.8139 50.9704 54.7082 50.7943 54.5955 50.8436C54.2009 51.0127 53.8063 51.1819 53.4188 51.351C53.292 51.4074 53.3977 51.5766 53.5174 51.5272Z" fill="#284260"/>
<path d="M54.0895 52.1331C54.322 51.9498 54.5827 51.8159 54.8716 51.7314C54.9913 51.6961 54.942 51.4988 54.8152 51.5411C54.4981 51.6397 54.2093 51.7877 53.9486 51.9921C53.8429 52.0767 53.9908 52.2176 54.0895 52.1331Z" fill="#284260"/>
<path d="M54.7012 52.7887C54.9125 52.6688 55.1239 52.542 55.3353 52.4222C55.448 52.3587 55.3494 52.1826 55.2366 52.246C55.0253 52.3658 54.8139 52.4926 54.6025 52.6125C54.4898 52.6829 54.5884 52.8521 54.7012 52.7887Z" fill="#284260"/>
<path d="M62.9939 36.1911C63.3814 36.029 63.776 35.9021 64.1847 35.7893C64.3115 35.7541 64.2551 35.5638 64.1283 35.5991C63.7196 35.7048 63.3251 35.8387 62.9375 36.0008C62.8178 36.0501 62.8741 36.2404 62.9939 36.1911Z" fill="#284260"/>
<path d="M64.7975 36.7408C65.2555 36.5435 65.7205 36.3673 66.1926 36.2052C66.3124 36.1629 66.2631 35.9726 66.1362 36.0149C65.6501 36.184 65.171 36.3673 64.6989 36.5716C64.5791 36.621 64.6777 36.7901 64.7975 36.7408Z" fill="#284260"/>
<path d="M65.7992 37.0371C66.074 36.8609 66.3699 36.7059 66.6729 36.5861C66.7927 36.5367 66.7363 36.3465 66.6165 36.3958C66.2924 36.5226 65.9824 36.6847 65.6935 36.868C65.5878 36.9314 65.6865 37.1076 65.7992 37.0371Z" fill="#284260"/>
<path d="M66.8776 37.4458C67.3004 37.2485 67.7231 37.0512 68.1458 36.8609C68.2656 36.8045 68.1599 36.6354 68.0472 36.6847C67.6245 36.882 67.2017 37.0794 66.779 37.2696C66.6592 37.326 66.7578 37.4952 66.8776 37.4458Z" fill="#284260"/>
<path d="M68.0246 37.96C68.5248 37.7345 69.0181 37.5019 69.5183 37.2764C69.6381 37.22 69.5324 37.0509 69.4197 37.1002C68.9194 37.3257 68.4262 37.5583 67.926 37.7838C67.8062 37.8402 67.9119 38.0164 68.0246 37.96Z" fill="#284260"/>
<path d="M68.6242 38.5309C69.1385 38.2842 69.6458 38.0234 70.139 37.7415C70.2518 37.6781 70.1531 37.5019 70.0404 37.5653C69.5472 37.8472 69.0399 38.108 68.5256 38.3547C68.4058 38.411 68.5115 38.5872 68.6242 38.5309Z" fill="#284260"/>
<path d="M69.6734 39.0593C70.1737 38.7774 70.688 38.5519 71.2376 38.3827C71.3574 38.3475 71.308 38.1501 71.1812 38.1924C70.6176 38.3686 70.0821 38.6012 69.5677 38.8902C69.455 38.9536 69.5607 39.1227 69.6734 39.0593Z" fill="#284260"/>
<path d="M70.5547 39.4963C71.0126 39.2355 71.4847 39.003 71.9709 38.7986C72.0907 38.7493 71.985 38.5731 71.8722 38.6224C71.3861 38.8268 70.914 39.0594 70.456 39.3201C70.3433 39.3835 70.4419 39.5597 70.5547 39.4963Z" fill="#284260"/>
<path d="M71.1112 40.1168C71.5833 39.9053 72.0553 39.6939 72.5204 39.4895C72.6401 39.4402 72.5344 39.264 72.4217 39.3133C71.9496 39.5247 71.4776 39.7362 71.0126 39.9406C70.8857 39.9969 70.9914 40.1661 71.1112 40.1168Z" fill="#284260"/>
<path d="M71.8502 40.9059C72.3293 40.624 72.8225 40.3562 73.3298 40.1095C73.4425 40.0532 73.3439 39.877 73.2311 39.9333C72.7309 40.18 72.2377 40.4408 71.7515 40.7297C71.6388 40.7932 71.7445 40.9694 71.8502 40.9059Z" fill="#284260"/>
<path d="M72.5905 41.6106C73.0414 41.2512 73.5275 40.9411 74.0419 40.6803C74.1546 40.624 74.056 40.4478 73.9432 40.5041C73.4148 40.772 72.9146 41.0962 72.4495 41.4697C72.3509 41.5472 72.4918 41.6882 72.5905 41.6106Z" fill="#284260"/>
<path d="M73.1906 42.0902C73.6979 41.8154 74.2052 41.5405 74.7055 41.2656C74.8182 41.2022 74.7195 41.0331 74.6068 41.0895C74.0995 41.3643 73.5922 41.6392 73.092 41.914C72.9722 41.9775 73.0779 42.1537 73.1906 42.0902Z" fill="#284260"/>
<path d="M73.6621 42.6324C74.1623 42.3576 74.6626 42.0757 75.1629 41.8008C75.2756 41.7374 75.1769 41.5682 75.0642 41.6246C74.564 41.8995 74.0637 42.1814 73.5635 42.4562C73.4507 42.5197 73.5494 42.6959 73.6621 42.6324Z" fill="#284260"/>
<path d="M74.5292 43.1263C74.9237 42.9501 75.3183 42.7809 75.7199 42.6047C75.8397 42.5554 75.734 42.3792 75.6213 42.4285C75.2267 42.6047 74.8321 42.7739 74.4305 42.9501C74.3037 43.0065 74.4094 43.1827 74.5292 43.1263Z" fill="#284260"/>
<path d="M74.8164 44.1976C75.2744 43.9016 75.7464 43.6479 76.2537 43.4435C76.3735 43.3942 76.3171 43.2039 76.1974 43.2532C75.676 43.4646 75.1828 43.7184 74.7177 44.0214C74.605 44.0919 74.7037 44.2681 74.8164 44.1976Z" fill="#284260"/>
<path d="M75.4512 45.3954C75.9514 45.1135 76.4587 44.8598 76.9801 44.6272C77.0999 44.5779 76.9942 44.4017 76.8815 44.451C76.3601 44.6836 75.8528 44.9373 75.3525 45.2192C75.2398 45.2826 75.3384 45.4588 75.4512 45.3954Z" fill="#284260"/>
<path d="M76.0215 46.3824C76.5006 46.0864 76.9867 45.8186 77.494 45.5719C77.6068 45.5156 77.5081 45.3394 77.3954 45.3958C76.8881 45.6424 76.4019 45.9102 75.9228 46.2062C75.8101 46.2767 75.9087 46.4459 76.0215 46.3824Z" fill="#284260"/>
<path d="M76.459 47.4816C76.9874 47.1927 77.5229 46.9037 78.0513 46.6148C78.164 46.5513 78.0654 46.3822 77.9527 46.4386C77.4242 46.7275 76.8888 47.0165 76.3603 47.3054C76.2476 47.3689 76.3462 47.5451 76.459 47.4816Z" fill="#284260"/>
<path d="M77.1071 48.4613C77.5369 48.1089 78.0019 47.8059 78.4951 47.5451C78.6078 47.4887 78.5092 47.3125 78.3964 47.3689C77.8891 47.6367 77.41 47.9539 76.9661 48.3203C76.8605 48.3979 77.0084 48.5388 77.1071 48.4613Z" fill="#284260"/>
<path d="M77.2695 49.617C77.7909 49.2858 78.3123 48.9545 78.8337 48.6233C78.9394 48.5528 78.8407 48.3836 78.735 48.4471C78.2137 48.7783 77.6923 49.1096 77.1709 49.4408C77.0581 49.5183 77.1568 49.6875 77.2695 49.617Z" fill="#284260"/>
<path d="M77.7066 50.4771C78.1364 50.1318 78.6014 49.8358 79.0875 49.5821C79.2003 49.5186 79.1016 49.3495 78.9889 49.4059C78.4886 49.6737 78.0166 49.9838 77.5727 50.3362C77.467 50.4137 77.6079 50.5546 77.7066 50.4771Z" fill="#284260"/>
<path d="M77.8612 51.5975C78.3051 51.1323 78.8194 50.7517 79.3902 50.4557C79.5029 50.3994 79.4043 50.2232 79.2915 50.2795C78.7067 50.5826 78.1783 50.9773 77.7203 51.4565C77.6287 51.5481 77.7767 51.6891 77.8612 51.5975Z" fill="#284260"/>
<path d="M77.9882 53.0211C78.4884 52.6476 79.0239 52.3445 79.5946 52.112C79.7144 52.0626 79.658 51.8723 79.5382 51.9217C78.9464 52.1613 78.3968 52.4714 77.8825 52.852C77.7838 52.9224 77.8825 53.0986 77.9882 53.0211Z" fill="#284260"/>
<path d="M78.3541 53.874C78.7769 53.5357 79.2489 53.282 79.7703 53.1129C79.8901 53.0706 79.8408 52.8803 79.714 52.9226C79.1644 53.0988 78.6641 53.3736 78.2132 53.7331C78.1146 53.8106 78.2555 53.9516 78.3541 53.874Z" fill="#284260"/>
<path d="M78.4237 54.9806C78.924 54.6494 79.4454 54.3675 79.9949 54.1349C80.1147 54.0856 80.0583 53.8953 79.9386 53.9446C79.3678 54.1772 78.8324 54.4661 78.318 54.8044C78.2194 54.882 78.318 55.0511 78.4237 54.9806Z" fill="#284260"/>
<path d="M78.5366 56.1712C79.0509 55.7766 79.6146 55.4524 80.2135 55.2057C80.3333 55.1564 80.2769 54.9661 80.1571 55.0154C79.5371 55.2691 78.9593 55.5933 78.4309 56.0021C78.3393 56.0796 78.4379 56.2488 78.5366 56.1712Z" fill="#284260"/>
<path d="M78.4674 57.1723C79.0169 56.8058 79.6017 56.5098 80.2217 56.2772C80.3415 56.235 80.2922 56.0376 80.1654 56.087C79.5313 56.3195 78.9324 56.6296 78.3687 57.0032C78.256 57.0736 78.3617 57.2498 78.4674 57.1723Z" fill="#284260"/>
<path d="M78.6437 58.1658C79.2497 57.8416 79.8556 57.5244 80.4616 57.2002C80.5743 57.1368 80.4756 56.9676 80.3629 57.024C79.757 57.3482 79.151 57.6654 78.5451 57.9896C78.4253 58.053 78.531 58.2221 78.6437 58.1658Z" fill="#284260"/>
<path d="M78.4244 59.6177C78.9739 59.2441 79.5588 58.927 80.1788 58.6803C80.2986 58.631 80.2422 58.4407 80.1224 58.49C79.4883 58.7437 78.8894 59.0609 78.3257 59.4485C78.213 59.519 78.3187 59.6881 78.4244 59.6177Z" fill="#284260"/>
<path d="M78.1359 60.7525C78.8053 60.4354 79.4676 60.1253 80.1369 59.8081C80.2567 59.7518 80.151 59.5826 80.0383 59.632C79.3689 59.9491 78.7066 60.2592 78.0373 60.5763C77.9175 60.6327 78.0232 60.8089 78.1359 60.7525Z" fill="#284260"/>
<path d="M78.4238 62.0704C78.9452 61.6757 79.5018 61.3374 80.0937 61.0625C80.2135 61.0062 80.1078 60.837 79.9951 60.8863C79.4032 61.1612 78.8466 61.4995 78.3252 61.8942C78.2195 61.9787 78.3252 62.1549 78.4238 62.0704Z" fill="#284260"/>
<path d="M77.8687 63.3393C78.6156 63.008 79.3695 62.712 80.1445 62.4513C80.2643 62.409 80.215 62.2187 80.0881 62.261C79.299 62.5288 78.524 62.8318 77.763 63.1701C77.6503 63.2195 77.756 63.3957 77.8687 63.3393Z" fill="#284260"/>
<path d="M77.8258 64.4735C78.4951 64.1422 79.1786 63.8744 79.8902 63.663C80.017 63.6278 79.9606 63.4304 79.8338 63.4727C79.1081 63.6912 78.4035 63.966 77.7201 64.3043C77.6073 64.3607 77.713 64.5369 77.8258 64.4735Z" fill="#284260"/>
<path d="M77.2842 65.5804C77.9465 65.2421 78.6299 64.9602 79.3345 64.7276C79.4543 64.6853 79.4049 64.4951 79.2781 64.5373C78.5595 64.777 77.8549 65.0659 77.1785 65.4113C77.0657 65.4606 77.1644 65.6368 77.2842 65.5804Z" fill="#284260"/>
<path d="M77.0152 66.5736C77.6564 66.2705 78.3116 66.0238 78.988 65.8124C79.1078 65.7772 79.0585 65.5798 78.9317 65.6221C78.2412 65.8336 77.5648 66.0943 76.9095 66.4044C76.7968 66.4538 76.9025 66.6299 77.0152 66.5736Z" fill="#284260"/>
<path d="M76.6139 67.7228C77.2621 67.4902 77.9033 67.2647 78.5515 67.0321C78.6713 66.9898 78.6219 66.7925 78.4951 66.8418C77.8469 67.0744 77.2057 67.2999 76.5575 67.5325C76.4448 67.5678 76.4941 67.7651 76.6139 67.7228Z" fill="#284260"/>
<path d="M75.9861 68.8365C76.74 68.5616 77.5009 68.3361 78.2901 68.1599C78.4169 68.1317 78.3605 67.9414 78.2337 67.9696C77.4516 68.1458 76.6836 68.3714 75.9297 68.6462C75.81 68.6885 75.8663 68.8788 75.9861 68.8365Z" fill="#284260"/>
<path d="M75.5297 70.0272C76.2695 69.6608 77.0304 69.3436 77.8055 69.0688C77.9252 69.0265 77.8759 68.8291 77.7491 68.8785C76.9529 69.1604 76.1779 69.4846 75.424 69.8511C75.3183 69.9074 75.4169 70.0836 75.5297 70.0272Z" fill="#284260"/>
<path d="M74.8033 71.1902C75.6629 70.8308 76.5366 70.5277 77.4314 70.281C77.5583 70.2458 77.5019 70.0555 77.3751 70.0908C76.4802 70.3374 75.6066 70.6405 74.747 70.9999C74.6342 71.0492 74.6836 71.2395 74.8033 71.1902Z" fill="#284260"/>
<path d="M74.0213 72.3669C74.7822 72.0709 75.5643 71.8383 76.3605 71.6692C76.4873 71.641 76.4309 71.4507 76.3041 71.4789C75.5009 71.6481 74.7258 71.8806 73.9649 72.1766C73.8451 72.2189 73.9015 72.4163 74.0213 72.3669Z" fill="#284260"/>
<path d="M73.4216 73.3256C74.1967 73.0437 74.9929 72.8323 75.8031 72.6843C75.9299 72.6631 75.8736 72.4658 75.7468 72.494C74.9365 72.642 74.1403 72.8604 73.3653 73.1353C73.2455 73.1705 73.3019 73.3679 73.4216 73.3256Z" fill="#284260"/>
<path d="M72.2732 74.5166C73.161 74.2558 74.0558 73.995 74.9436 73.7343C75.0704 73.699 75.014 73.5017 74.8872 73.544C73.9995 73.8048 73.1046 74.0655 72.2169 74.3263C72.0971 74.3545 72.1464 74.5518 72.2732 74.5166Z" fill="#284260"/>
<path d="M71.4568 75.567C72.2389 75.3908 73.021 75.2076 73.803 75.0314C73.9299 75.0032 73.8735 74.8059 73.7467 74.8411C72.9646 75.0173 72.1825 75.2005 71.4004 75.3767C71.2807 75.3979 71.337 75.5952 71.4568 75.567Z" fill="#284260"/>
<path d="M70.3084 76.6589C71.1328 76.518 71.943 76.3559 72.7603 76.1726C72.8872 76.1444 72.8308 75.9541 72.704 75.9823C71.8937 76.1656 71.0764 76.3277 70.252 76.4686C70.1322 76.4827 70.1816 76.6801 70.3084 76.6589Z" fill="#284260"/>
<path d="M68.9759 77.8083C69.7862 77.6321 70.6106 77.4911 71.4349 77.3854C71.5617 77.3713 71.5617 77.1669 71.4349 77.1881C70.5894 77.3008 69.758 77.4418 68.9266 77.618C68.7927 77.6391 68.8491 77.8294 68.9759 77.8083Z" fill="#284260"/>
<path d="M67.6666 78.7875C68.5403 78.421 69.6113 78.4633 70.5413 78.3787C70.6681 78.3646 70.6681 78.1673 70.5413 78.1814C69.5901 78.266 68.5051 78.2237 67.6103 78.5972C67.4975 78.6395 67.5469 78.8368 67.6666 78.7875Z" fill="#284260"/>
<path d="M66.5307 79.4711C67.3973 79.4711 68.2639 79.4429 69.1306 79.3865C69.2574 79.3795 69.2574 79.1751 69.1306 79.1892C68.2639 79.2456 67.3973 79.2737 66.5307 79.2737C66.4038 79.2667 66.4038 79.4711 66.5307 79.4711Z" fill="#284260"/>
<path d="M65.5667 80.1902C66.5461 80.1479 67.5184 80.0563 68.4837 79.9224C68.6105 79.9013 68.5541 79.711 68.4273 79.7321C67.4761 79.866 66.5249 79.9506 65.5597 79.9929C65.4399 79.9929 65.4399 80.1973 65.5667 80.1902Z" fill="#284260"/>
<path d="M64.0873 81.0571C65.0737 81.0219 66.0601 80.9867 67.0465 80.9514C67.1734 80.9444 67.1734 80.747 67.0465 80.7541C66.0601 80.7893 65.0737 80.8246 64.0873 80.8598C63.9605 80.8598 63.9605 81.0642 64.0873 81.0571Z" fill="#284260"/>
<path d="M61.726 82.1703C63.107 82.0505 64.4879 81.9589 65.8689 81.8884C65.9957 81.8814 65.9957 81.6841 65.8689 81.6911C64.4879 81.7545 63.107 81.8462 61.726 81.973C61.5992 81.9801 61.5992 82.1774 61.726 82.1703Z" fill="#284260"/>
<path d="M59.9232 83.0652C61.2619 82.9947 62.6006 82.9242 63.9393 82.8538C64.0662 82.8467 64.0662 82.6494 63.9393 82.6564C62.6006 82.7269 61.2619 82.7974 59.9232 82.8679C59.7964 82.8679 59.7964 83.0722 59.9232 83.0652Z" fill="#284260"/>
<path d="M58.6551 83.5376C59.7824 83.7209 60.9098 83.8054 62.0512 83.7913C62.178 83.7913 62.178 83.587 62.0512 83.594C60.9309 83.6081 59.8177 83.5235 58.7044 83.3473C58.5776 83.3262 58.5213 83.5165 58.6551 83.5376Z" fill="#284260"/>
<path d="M56.8719 84.1863C58.119 84.4118 59.3732 84.5457 60.6344 84.588C60.7612 84.5951 60.7612 84.3907 60.6344 84.3907C59.3873 84.3484 58.1543 84.2215 56.9212 83.996C56.7944 83.9678 56.7381 84.1581 56.8719 84.1863Z" fill="#284260"/>
<path d="M55.8361 84.4751C56.4773 84.9332 57.1818 85.2574 57.9428 85.4407C58.0696 85.4689 58.1189 85.2786 57.9992 85.2504C57.2523 85.0742 56.5689 84.757 55.9418 84.306C55.8291 84.2285 55.7304 84.3976 55.8361 84.4751Z" fill="#284260"/>
<path d="M44.6758 56.1922C44.8942 56.8195 45.2536 57.3762 45.7397 57.8273C45.93 58.0035 46.2118 57.7216 46.0216 57.5454C45.5847 57.1366 45.2606 56.6503 45.0633 56.0865C44.9788 55.8469 44.5842 55.9526 44.6758 56.1922Z" fill="#284260"/>
<path d="M46.7827 58.6946C47.0857 58.9272 47.4168 59.1316 47.7691 59.2937C48.0016 59.3994 48.206 59.0541 47.9735 58.9483C47.6212 58.7863 47.2971 58.5889 46.987 58.3493C46.7827 58.1872 46.5854 58.5396 46.7827 58.6946Z" fill="#284260"/>
<path d="M46.5421 57.0665C46.7746 57.2991 47.0212 57.5246 47.2749 57.736C47.4721 57.8981 47.761 57.6162 47.5567 57.4541C47.303 57.2427 47.0564 57.0242 46.8239 56.7846C46.6478 56.6013 46.366 56.8832 46.5421 57.0665Z" fill="#284260"/>
<path d="M75.7411 59.4769C75.4311 63.776 73.7824 67.8989 71.0486 71.2325C70.8865 71.4298 71.1684 71.7188 71.3304 71.5144C74.1346 68.0963 75.8186 63.8888 76.1356 59.4769C76.1568 59.2232 75.7552 59.2232 75.7411 59.4769Z" fill="#284260"/>
<path d="M69.6386 72.6348C69.3004 73.1211 68.9622 73.6145 68.624 74.1007C68.476 74.3122 68.8213 74.5166 68.9692 74.3051C69.3074 73.8188 69.6456 73.3255 69.9838 72.8392C70.1318 72.6207 69.7865 72.4234 69.6386 72.6348Z" fill="#284260"/>
</svg>
